%TF.GenerationSoftware,KiCad,Pcbnew,(6.0.0)*%
%TF.CreationDate,2022-03-26T23:52:22+13:00*%
%TF.ProjectId,Kea Nano PCB V1,4b656120-4e61-46e6-9f20-504342205631,rev?*%
%TF.SameCoordinates,Original*%
%TF.FileFunction,Profile,NP*%
%FSLAX46Y46*%
G04 Gerber Fmt 4.6, Leading zero omitted, Abs format (unit mm)*
G04 Created by KiCad (PCBNEW (6.0.0)) date 2022-03-26 23:52:22*
%MOMM*%
%LPD*%
G01*
G04 APERTURE LIST*
%TA.AperFunction,Profile*%
%ADD10C,0.100000*%
%TD*%
%TA.AperFunction,Profile*%
%ADD11C,0.050000*%
%TD*%
G04 APERTURE END LIST*
D10*
X207000000Y-130000000D02*
G75*
G03*
X210000000Y-127000000I-1J3000001D01*
G01*
D11*
X204247721Y-121500000D02*
X204163482Y-121502358D01*
X204163482Y-121502358D02*
X203999228Y-121539848D01*
X203999228Y-121539848D02*
X203847434Y-121612948D01*
X203847434Y-121612948D02*
X203715713Y-121717992D01*
X203715713Y-121717992D02*
X203610669Y-121849713D01*
X203610669Y-121849713D02*
X203537569Y-122001507D01*
X203537569Y-122001507D02*
X203500079Y-122165761D01*
X203500079Y-122165761D02*
X203500079Y-122334239D01*
X203500079Y-122334239D02*
X203537569Y-122498493D01*
X203537569Y-122498493D02*
X203610669Y-122650287D01*
X203610669Y-122650287D02*
X203715713Y-122782008D01*
X203715713Y-122782008D02*
X203847434Y-122887052D01*
X203847434Y-122887052D02*
X203999228Y-122960152D01*
X203999228Y-122960152D02*
X204163482Y-122997642D01*
X204163482Y-122997642D02*
X204247721Y-123000000D01*
X204247721Y-123000000D02*
X208747721Y-123000000D01*
X208747721Y-123000000D02*
X208831960Y-122997642D01*
X208831960Y-122997642D02*
X208996214Y-122960152D01*
X208996214Y-122960152D02*
X209148008Y-122887052D01*
X209148008Y-122887052D02*
X209279729Y-122782008D01*
X209279729Y-122782008D02*
X209384773Y-122650287D01*
X209384773Y-122650287D02*
X209457873Y-122498493D01*
X209457873Y-122498493D02*
X209495363Y-122334239D01*
X209495363Y-122334239D02*
X209495363Y-122165761D01*
X209495363Y-122165761D02*
X209457873Y-122001507D01*
X209457873Y-122001507D02*
X209384773Y-121849713D01*
X209384773Y-121849713D02*
X209279729Y-121717992D01*
X209279729Y-121717992D02*
X209148008Y-121612948D01*
X209148008Y-121612948D02*
X208996214Y-121539848D01*
X208996214Y-121539848D02*
X208831960Y-121502358D01*
X208831960Y-121502358D02*
X208747721Y-121500000D01*
X208747721Y-121500000D02*
X204247721Y-121500000D01*
D10*
X153000000Y-130000000D02*
X207000000Y-130000000D01*
D11*
X204247721Y-107000000D02*
X204163482Y-107002358D01*
X204163482Y-107002358D02*
X203999228Y-107039848D01*
X203999228Y-107039848D02*
X203847434Y-107112948D01*
X203847434Y-107112948D02*
X203715713Y-107217992D01*
X203715713Y-107217992D02*
X203610669Y-107349713D01*
X203610669Y-107349713D02*
X203537569Y-107501507D01*
X203537569Y-107501507D02*
X203500079Y-107665761D01*
X203500079Y-107665761D02*
X203500079Y-107834239D01*
X203500079Y-107834239D02*
X203537569Y-107998493D01*
X203537569Y-107998493D02*
X203610669Y-108150287D01*
X203610669Y-108150287D02*
X203715713Y-108282008D01*
X203715713Y-108282008D02*
X203847434Y-108387052D01*
X203847434Y-108387052D02*
X203999228Y-108460152D01*
X203999228Y-108460152D02*
X204163482Y-108497642D01*
X204163482Y-108497642D02*
X204247721Y-108500000D01*
X204247721Y-108500000D02*
X208747721Y-108500000D01*
X208747721Y-108500000D02*
X208831960Y-108497642D01*
X208831960Y-108497642D02*
X208996214Y-108460152D01*
X208996214Y-108460152D02*
X209148008Y-108387052D01*
X209148008Y-108387052D02*
X209279729Y-108282008D01*
X209279729Y-108282008D02*
X209384773Y-108150287D01*
X209384773Y-108150287D02*
X209457873Y-107998493D01*
X209457873Y-107998493D02*
X209495363Y-107834239D01*
X209495363Y-107834239D02*
X209495363Y-107665761D01*
X209495363Y-107665761D02*
X209457873Y-107501507D01*
X209457873Y-107501507D02*
X209384773Y-107349713D01*
X209384773Y-107349713D02*
X209279729Y-107217992D01*
X209279729Y-107217992D02*
X209148008Y-107112948D01*
X209148008Y-107112948D02*
X208996214Y-107039848D01*
X208996214Y-107039848D02*
X208831960Y-107002358D01*
X208831960Y-107002358D02*
X208747721Y-107000000D01*
X208747721Y-107000000D02*
X204247721Y-107000000D01*
D10*
X195718930Y-125714959D02*
X195843011Y-125717521D01*
X195843011Y-125717521D02*
X196087789Y-125758367D01*
X196087789Y-125758367D02*
X196322506Y-125838945D01*
X196322506Y-125838945D02*
X196540758Y-125957057D01*
X196540758Y-125957057D02*
X196736593Y-126109482D01*
X196736593Y-126109482D02*
X196904669Y-126292061D01*
X196904669Y-126292061D02*
X197040401Y-126499814D01*
X197040401Y-126499814D02*
X197140087Y-126727075D01*
X197140087Y-126727075D02*
X197201007Y-126967644D01*
X197201007Y-126967644D02*
X197221501Y-127214959D01*
X197221501Y-127214959D02*
X197201007Y-127462274D01*
X197201007Y-127462274D02*
X197140087Y-127702843D01*
X197140087Y-127702843D02*
X197040401Y-127930104D01*
X197040401Y-127930104D02*
X196904669Y-128137857D01*
X196904669Y-128137857D02*
X196736593Y-128320436D01*
X196736593Y-128320436D02*
X196540758Y-128472861D01*
X196540758Y-128472861D02*
X196322506Y-128590973D01*
X196322506Y-128590973D02*
X196087789Y-128671551D01*
X196087789Y-128671551D02*
X195843011Y-128712397D01*
X195843011Y-128712397D02*
X195718930Y-128714959D01*
X195718930Y-128714959D02*
X186718930Y-128714959D01*
X186718930Y-128714959D02*
X186594849Y-128712397D01*
X186594849Y-128712397D02*
X186350071Y-128671551D01*
X186350071Y-128671551D02*
X186115354Y-128590973D01*
X186115354Y-128590973D02*
X185897102Y-128472861D01*
X185897102Y-128472861D02*
X185701267Y-128320436D01*
X185701267Y-128320436D02*
X185533191Y-128137857D01*
X185533191Y-128137857D02*
X185397459Y-127930104D01*
X185397459Y-127930104D02*
X185297773Y-127702843D01*
X185297773Y-127702843D02*
X185236853Y-127462274D01*
X185236853Y-127462274D02*
X185216360Y-127214959D01*
X185216360Y-127214959D02*
X185236853Y-126967644D01*
X185236853Y-126967644D02*
X185297773Y-126727075D01*
X185297773Y-126727075D02*
X185397459Y-126499814D01*
X185397459Y-126499814D02*
X185533191Y-126292061D01*
X185533191Y-126292061D02*
X185701267Y-126109482D01*
X185701267Y-126109482D02*
X185897102Y-125957057D01*
X185897102Y-125957057D02*
X186115354Y-125838945D01*
X186115354Y-125838945D02*
X186350071Y-125758367D01*
X186350071Y-125758367D02*
X186594849Y-125717521D01*
X186594849Y-125717521D02*
X186718930Y-125714959D01*
X186718930Y-125714959D02*
X195718930Y-125714959D01*
X150000000Y-103000000D02*
X150000000Y-127000000D01*
X195500000Y-101000000D02*
X195624081Y-101002562D01*
X195624081Y-101002562D02*
X195868859Y-101043408D01*
X195868859Y-101043408D02*
X196103576Y-101123986D01*
X196103576Y-101123986D02*
X196321828Y-101242098D01*
X196321828Y-101242098D02*
X196517663Y-101394523D01*
X196517663Y-101394523D02*
X196685739Y-101577102D01*
X196685739Y-101577102D02*
X196821471Y-101784855D01*
X196821471Y-101784855D02*
X196921157Y-102012116D01*
X196921157Y-102012116D02*
X196982077Y-102252685D01*
X196982077Y-102252685D02*
X197002571Y-102500000D01*
X197002571Y-102500000D02*
X196982077Y-102747315D01*
X196982077Y-102747315D02*
X196921157Y-102987884D01*
X196921157Y-102987884D02*
X196821471Y-103215145D01*
X196821471Y-103215145D02*
X196685739Y-103422898D01*
X196685739Y-103422898D02*
X196517663Y-103605477D01*
X196517663Y-103605477D02*
X196321828Y-103757902D01*
X196321828Y-103757902D02*
X196103576Y-103876014D01*
X196103576Y-103876014D02*
X195868859Y-103956592D01*
X195868859Y-103956592D02*
X195624081Y-103997438D01*
X195624081Y-103997438D02*
X195500000Y-104000000D01*
X195500000Y-104000000D02*
X186500000Y-104000000D01*
X186500000Y-104000000D02*
X186375919Y-103997438D01*
X186375919Y-103997438D02*
X186131141Y-103956592D01*
X186131141Y-103956592D02*
X185896424Y-103876014D01*
X185896424Y-103876014D02*
X185678172Y-103757902D01*
X185678172Y-103757902D02*
X185482337Y-103605477D01*
X185482337Y-103605477D02*
X185314261Y-103422898D01*
X185314261Y-103422898D02*
X185178529Y-103215145D01*
X185178529Y-103215145D02*
X185078843Y-102987884D01*
X185078843Y-102987884D02*
X185017923Y-102747315D01*
X185017923Y-102747315D02*
X184997430Y-102500000D01*
X184997430Y-102500000D02*
X185017923Y-102252685D01*
X185017923Y-102252685D02*
X185078843Y-102012116D01*
X185078843Y-102012116D02*
X185178529Y-101784855D01*
X185178529Y-101784855D02*
X185314261Y-101577102D01*
X185314261Y-101577102D02*
X185482337Y-101394523D01*
X185482337Y-101394523D02*
X185678172Y-101242098D01*
X185678172Y-101242098D02*
X185896424Y-101123986D01*
X185896424Y-101123986D02*
X186131141Y-101043408D01*
X186131141Y-101043408D02*
X186375919Y-101002562D01*
X186375919Y-101002562D02*
X186500000Y-101000000D01*
X186500000Y-101000000D02*
X195500000Y-101000000D01*
X210000000Y-103000000D02*
G75*
G03*
X207000000Y-100000000I-3000001J-1D01*
G01*
X153000000Y-100000000D02*
X207000000Y-100000000D01*
X150000000Y-127000000D02*
G75*
G03*
X153000000Y-130000000I3000001J1D01*
G01*
X210000000Y-103000000D02*
X210000000Y-127000000D01*
X153000000Y-100000000D02*
G75*
G03*
X150000000Y-103000000I1J-3000001D01*
G01*
M02*
