%TF.GenerationSoftware,KiCad,Pcbnew,(6.0.0)*%
%TF.CreationDate,2022-03-26T23:52:22+13:00*%
%TF.ProjectId,Kea Nano PCB V1,4b656120-4e61-46e6-9f20-504342205631,rev?*%
%TF.SameCoordinates,Original*%
%TF.FileFunction,Soldermask,Bot*%
%TF.FilePolarity,Negative*%
%FSLAX46Y46*%
G04 Gerber Fmt 4.6, Leading zero omitted, Abs format (unit mm)*
G04 Created by KiCad (PCBNEW (6.0.0)) date 2022-03-26 23:52:22*
%MOMM*%
%LPD*%
G01*
G04 APERTURE LIST*
G04 Aperture macros list*
%AMRoundRect*
0 Rectangle with rounded corners*
0 $1 Rounding radius*
0 $2 $3 $4 $5 $6 $7 $8 $9 X,Y pos of 4 corners*
0 Add a 4 corners polygon primitive as box body*
4,1,4,$2,$3,$4,$5,$6,$7,$8,$9,$2,$3,0*
0 Add four circle primitives for the rounded corners*
1,1,$1+$1,$2,$3*
1,1,$1+$1,$4,$5*
1,1,$1+$1,$6,$7*
1,1,$1+$1,$8,$9*
0 Add four rect primitives between the rounded corners*
20,1,$1+$1,$2,$3,$4,$5,0*
20,1,$1+$1,$4,$5,$6,$7,0*
20,1,$1+$1,$6,$7,$8,$9,0*
20,1,$1+$1,$8,$9,$2,$3,0*%
G04 Aperture macros list end*
%ADD10C,3.200000*%
%ADD11C,0.650000*%
%ADD12O,2.100000X1.000000*%
%ADD13O,1.600000X1.000000*%
%ADD14RoundRect,1.000000X-1.000000X0.000000X-1.000000X0.000000X1.000000X0.000000X1.000000X0.000000X0*%
%ADD15R,0.900000X2.000000*%
%ADD16R,2.000000X0.900000*%
%ADD17R,5.000000X5.000000*%
%ADD18RoundRect,0.500000X4.000000X4.000000X-4.000000X4.000000X-4.000000X-4.000000X4.000000X-4.000000X0*%
G04 APERTURE END LIST*
D10*
%TO.C,H3*%
X207000000Y-103000000D03*
%TD*%
%TO.C,H1*%
X207000000Y-127080000D03*
%TD*%
%TO.C,H2*%
X153000000Y-127000000D03*
%TD*%
%TO.C,H4*%
X153000000Y-103000000D03*
%TD*%
D11*
%TO.C,J1*%
X156405000Y-112110000D03*
X156405000Y-117890000D03*
D12*
X156905000Y-110680000D03*
X156905000Y-119320000D03*
D13*
X152725000Y-119320000D03*
X152725000Y-110680000D03*
%TD*%
D14*
%TO.C,5V2*%
X204500000Y-111250000D03*
%TD*%
D15*
%TO.C,U2*%
X181995000Y-106500000D03*
X183265000Y-106500000D03*
X184535000Y-106500000D03*
X185805000Y-106500000D03*
X187075000Y-106500000D03*
X188345000Y-106500000D03*
X189615000Y-106500000D03*
X190885000Y-106500000D03*
X192155000Y-106500000D03*
X193425000Y-106500000D03*
X194695000Y-106500000D03*
X195965000Y-106500000D03*
X197235000Y-106500000D03*
X198505000Y-106500000D03*
D16*
X199505000Y-109285000D03*
X199505000Y-110555000D03*
X199505000Y-119445000D03*
X199505000Y-120715000D03*
D15*
X198505000Y-123500000D03*
X197235000Y-123500000D03*
X195965000Y-123500000D03*
X194695000Y-123500000D03*
X193425000Y-123500000D03*
X192155000Y-123500000D03*
X190885000Y-123500000D03*
X189615000Y-123500000D03*
X188345000Y-123500000D03*
X187075000Y-123500000D03*
X185805000Y-123500000D03*
X184535000Y-123500000D03*
X183265000Y-123500000D03*
X181995000Y-123500000D03*
D17*
X189495000Y-114000000D03*
%TD*%
D18*
%TO.C,IO4*%
X164000000Y-105600000D03*
%TD*%
%TO.C,IO33*%
X164000000Y-124400000D03*
%TD*%
%TO.C,IO27*%
X164000000Y-114990000D03*
%TD*%
D14*
%TO.C,GND3*%
X204500000Y-118750000D03*
%TD*%
%TO.C,IO2*%
X204500000Y-115000000D03*
%TD*%
M02*
