%TF.GenerationSoftware,KiCad,Pcbnew,(6.0.0)*%
%TF.CreationDate,2022-03-26T23:52:19+13:00*%
%TF.ProjectId,Kea Nano PCB V1,4b656120-4e61-46e6-9f20-504342205631,rev?*%
%TF.SameCoordinates,Original*%
%TF.FileFunction,Paste,Top*%
%TF.FilePolarity,Positive*%
%FSLAX46Y46*%
G04 Gerber Fmt 4.6, Leading zero omitted, Abs format (unit mm)*
G04 Created by KiCad (PCBNEW (6.0.0)) date 2022-03-26 23:52:19*
%MOMM*%
%LPD*%
G01*
G04 APERTURE LIST*
G04 Aperture macros list*
%AMRoundRect*
0 Rectangle with rounded corners*
0 $1 Rounding radius*
0 $2 $3 $4 $5 $6 $7 $8 $9 X,Y pos of 4 corners*
0 Add a 4 corners polygon primitive as box body*
4,1,4,$2,$3,$4,$5,$6,$7,$8,$9,$2,$3,0*
0 Add four circle primitives for the rounded corners*
1,1,$1+$1,$2,$3*
1,1,$1+$1,$4,$5*
1,1,$1+$1,$6,$7*
1,1,$1+$1,$8,$9*
0 Add four rect primitives between the rounded corners*
20,1,$1+$1,$2,$3,$4,$5,0*
20,1,$1+$1,$4,$5,$6,$7,0*
20,1,$1+$1,$6,$7,$8,$9,0*
20,1,$1+$1,$8,$9,$2,$3,0*%
G04 Aperture macros list end*
%ADD10RoundRect,0.218750X0.218750X0.256250X-0.218750X0.256250X-0.218750X-0.256250X0.218750X-0.256250X0*%
%ADD11RoundRect,1.000000X0.000000X1.000000X0.000000X1.000000X0.000000X-1.000000X0.000000X-1.000000X0*%
%ADD12RoundRect,0.135000X0.185000X-0.135000X0.185000X0.135000X-0.185000X0.135000X-0.185000X-0.135000X0*%
%ADD13RoundRect,0.140000X-0.170000X0.140000X-0.170000X-0.140000X0.170000X-0.140000X0.170000X0.140000X0*%
%ADD14R,1.000000X0.750000*%
%ADD15RoundRect,0.250000X0.625000X-0.375000X0.625000X0.375000X-0.625000X0.375000X-0.625000X-0.375000X0*%
%ADD16RoundRect,0.150000X0.150000X-0.587500X0.150000X0.587500X-0.150000X0.587500X-0.150000X-0.587500X0*%
%ADD17RoundRect,0.250000X0.650000X-0.325000X0.650000X0.325000X-0.650000X0.325000X-0.650000X-0.325000X0*%
%ADD18RoundRect,0.150000X-0.150000X0.587500X-0.150000X-0.587500X0.150000X-0.587500X0.150000X0.587500X0*%
%ADD19RoundRect,0.250000X0.375000X0.625000X-0.375000X0.625000X-0.375000X-0.625000X0.375000X-0.625000X0*%
%ADD20RoundRect,0.135000X0.135000X0.185000X-0.135000X0.185000X-0.135000X-0.185000X0.135000X-0.185000X0*%
%ADD21RoundRect,0.150000X-0.512500X-0.150000X0.512500X-0.150000X0.512500X0.150000X-0.512500X0.150000X0*%
%ADD22RoundRect,0.150000X-0.150000X0.850000X-0.150000X-0.850000X0.150000X-0.850000X0.150000X0.850000X0*%
%ADD23RoundRect,1.000000X0.000000X-1.000000X0.000000X-1.000000X0.000000X1.000000X0.000000X1.000000X0*%
%ADD24RoundRect,0.135000X-0.135000X-0.185000X0.135000X-0.185000X0.135000X0.185000X-0.135000X0.185000X0*%
%ADD25RoundRect,0.150000X0.587500X0.150000X-0.587500X0.150000X-0.587500X-0.150000X0.587500X-0.150000X0*%
%ADD26RoundRect,0.135000X-0.185000X0.135000X-0.185000X-0.135000X0.185000X-0.135000X0.185000X0.135000X0*%
%ADD27R,2.000000X1.500000*%
%ADD28R,2.000000X3.800000*%
%ADD29R,1.150000X0.300000*%
%ADD30RoundRect,0.140000X0.170000X-0.140000X0.170000X0.140000X-0.170000X0.140000X-0.170000X-0.140000X0*%
G04 APERTURE END LIST*
D10*
%TO.C,D5*%
X191767500Y-120000000D03*
X190192500Y-120000000D03*
%TD*%
D11*
%TO.C,GND1*%
X185000000Y-123000000D03*
%TD*%
D12*
%TO.C,R11*%
X158000000Y-104520000D03*
X158000000Y-103500000D03*
%TD*%
D13*
%TO.C,C6*%
X155670000Y-120780000D03*
X155670000Y-121740000D03*
%TD*%
D12*
%TO.C,R18*%
X180200000Y-109260000D03*
X180200000Y-108240000D03*
%TD*%
%TO.C,R10*%
X180200000Y-121760000D03*
X180200000Y-120740000D03*
%TD*%
D14*
%TO.C,SW2*%
X160000000Y-101000000D03*
X166000000Y-101000000D03*
X166000000Y-104750000D03*
X160000000Y-104750000D03*
%TD*%
D12*
%TO.C,R4*%
X180200000Y-116760000D03*
X180200000Y-115740000D03*
%TD*%
D10*
%TO.C,D4*%
X194767500Y-120000000D03*
X193192500Y-120000000D03*
%TD*%
D15*
%TO.C,F1*%
X168000000Y-104300000D03*
X168000000Y-101500000D03*
%TD*%
D16*
%TO.C,Q6*%
X167560000Y-128425000D03*
X169460000Y-128425000D03*
X168510000Y-126550000D03*
%TD*%
D10*
%TO.C,D1*%
X188767500Y-120000000D03*
X187192500Y-120000000D03*
%TD*%
D17*
%TO.C,C5*%
X157400000Y-124150000D03*
X157400000Y-121200000D03*
%TD*%
D13*
%TO.C,C2*%
X158000000Y-101500000D03*
X158000000Y-102460000D03*
%TD*%
D18*
%TO.C,Q5*%
X158650000Y-125962500D03*
X156750000Y-125962500D03*
X157700000Y-127837500D03*
%TD*%
D19*
%TO.C,F2*%
X163300000Y-113800000D03*
X160500000Y-113800000D03*
%TD*%
D13*
%TO.C,C4*%
X156800000Y-101500000D03*
X156800000Y-102460000D03*
%TD*%
D20*
%TO.C,R23*%
X168810000Y-124900000D03*
X167790000Y-124900000D03*
%TD*%
D10*
%TO.C,D3*%
X183917500Y-126470000D03*
X182342500Y-126470000D03*
%TD*%
D21*
%TO.C,U3*%
X166250000Y-113750000D03*
X166250000Y-114700000D03*
X166250000Y-115650000D03*
X168525000Y-115650000D03*
X168525000Y-114700000D03*
X168525000Y-113750000D03*
%TD*%
D12*
%TO.C,R7*%
X181130000Y-128690000D03*
X181130000Y-127670000D03*
%TD*%
D22*
%TO.C,U4*%
X169290000Y-118100000D03*
X168020000Y-118100000D03*
X166750000Y-118100000D03*
X165480000Y-118100000D03*
X164210000Y-118100000D03*
X162940000Y-118100000D03*
X161670000Y-118100000D03*
X160400000Y-118100000D03*
X160400000Y-123100000D03*
X161670000Y-123100000D03*
X162940000Y-123100000D03*
X164210000Y-123100000D03*
X165480000Y-123100000D03*
X166750000Y-123100000D03*
X168020000Y-123100000D03*
X169290000Y-123100000D03*
%TD*%
D18*
%TO.C,Q4*%
X200350000Y-102562500D03*
X198450000Y-102562500D03*
X199400000Y-104437500D03*
%TD*%
D10*
%TO.C,D7*%
X194767500Y-110000000D03*
X193192500Y-110000000D03*
%TD*%
D23*
%TO.C,IO21*%
X191000000Y-107000000D03*
%TD*%
D20*
%TO.C,R28*%
X154530000Y-120840000D03*
X153510000Y-120840000D03*
%TD*%
D11*
%TO.C,3.3V1*%
X197000000Y-123000000D03*
%TD*%
%TO.C,IO14*%
X194000000Y-123000000D03*
%TD*%
D20*
%TO.C,R6*%
X197180000Y-114990000D03*
X196160000Y-114990000D03*
%TD*%
%TO.C,R24*%
X156810000Y-129400000D03*
X155790000Y-129400000D03*
%TD*%
D24*
%TO.C,R1*%
X157790000Y-129400000D03*
X158810000Y-129400000D03*
%TD*%
D25*
%TO.C,Q7*%
X204667500Y-112230000D03*
X204667500Y-110330000D03*
X202792500Y-111280000D03*
%TD*%
D26*
%TO.C,R8*%
X181130000Y-125760000D03*
X181130000Y-126780000D03*
%TD*%
D24*
%TO.C,R27*%
X194180000Y-114990000D03*
X195200000Y-114990000D03*
%TD*%
D20*
%TO.C,R3*%
X161210000Y-116200000D03*
X160190000Y-116200000D03*
%TD*%
D12*
%TO.C,R22*%
X180200000Y-114260000D03*
X180200000Y-113240000D03*
%TD*%
D23*
%TO.C,5V1*%
X194000000Y-107000000D03*
%TD*%
D12*
%TO.C,R5*%
X199900000Y-106920000D03*
X199900000Y-105900000D03*
%TD*%
D23*
%TO.C,GND2*%
X185000000Y-107000000D03*
%TD*%
D27*
%TO.C,U1*%
X160850000Y-106700000D03*
X160850000Y-109000000D03*
X160850000Y-111300000D03*
D28*
X167150000Y-109000000D03*
%TD*%
D24*
%TO.C,R12*%
X201180000Y-128300000D03*
X202200000Y-128300000D03*
%TD*%
D12*
%TO.C,R14*%
X180200000Y-119260000D03*
X180200000Y-118240000D03*
%TD*%
D26*
%TO.C,R13*%
X200100000Y-123180000D03*
X200100000Y-124200000D03*
%TD*%
D11*
%TO.C,IO32*%
X188000000Y-123000000D03*
%TD*%
D12*
%TO.C,R17*%
X201600000Y-126310000D03*
X201600000Y-125290000D03*
%TD*%
D25*
%TO.C,Q3*%
X204657500Y-119580000D03*
X204657500Y-117680000D03*
X202782500Y-118630000D03*
%TD*%
D26*
%TO.C,R9*%
X156800000Y-103480000D03*
X156800000Y-104500000D03*
%TD*%
%TO.C,R16*%
X201600000Y-123190000D03*
X201600000Y-124210000D03*
%TD*%
D11*
%TO.C,IO15*%
X191000000Y-123000000D03*
%TD*%
D26*
%TO.C,R20*%
X201500000Y-104780000D03*
X201500000Y-105800000D03*
%TD*%
D23*
%TO.C,IO36*%
X197000000Y-107000000D03*
%TD*%
D16*
%TO.C,Q2*%
X198050000Y-127937500D03*
X199950000Y-127937500D03*
X199000000Y-126062500D03*
%TD*%
D10*
%TO.C,D2*%
X183917500Y-127970000D03*
X182342500Y-127970000D03*
%TD*%
D14*
%TO.C,SW1*%
X160000000Y-125125000D03*
X166000000Y-125125000D03*
X160000000Y-128875000D03*
X166000000Y-128875000D03*
%TD*%
D10*
%TO.C,D8*%
X188767500Y-110000000D03*
X187192500Y-110000000D03*
%TD*%
D17*
%TO.C,C1*%
X157400000Y-108800000D03*
X157400000Y-105850000D03*
%TD*%
D29*
%TO.C,J1*%
X157470000Y-111650000D03*
X157470000Y-112450000D03*
X157470000Y-113750000D03*
X157470000Y-114750000D03*
X157470000Y-115250000D03*
X157470000Y-116250000D03*
X157470000Y-117550000D03*
X157470000Y-118350000D03*
X157470000Y-118050000D03*
X157470000Y-117250000D03*
X157470000Y-116750000D03*
X157470000Y-115750000D03*
X157470000Y-114250000D03*
X157470000Y-113250000D03*
X157470000Y-112750000D03*
X157470000Y-111950000D03*
%TD*%
D24*
%TO.C,R15*%
X153500000Y-109160000D03*
X154520000Y-109160000D03*
%TD*%
D30*
%TO.C,C3*%
X155700000Y-109100000D03*
X155700000Y-108140000D03*
%TD*%
D23*
%TO.C,IO22*%
X188000000Y-107000000D03*
%TD*%
D12*
%TO.C,R25*%
X201500000Y-107910000D03*
X201500000Y-106890000D03*
%TD*%
D25*
%TO.C,Q1*%
X204667500Y-115950000D03*
X204667500Y-114050000D03*
X202792500Y-115000000D03*
%TD*%
D12*
%TO.C,R21*%
X201730000Y-103040000D03*
X201730000Y-102020000D03*
%TD*%
%TO.C,R26*%
X202830000Y-103040000D03*
X202830000Y-102020000D03*
%TD*%
D10*
%TO.C,D6*%
X152337500Y-108910000D03*
X150762500Y-108910000D03*
%TD*%
%TO.C,D10*%
X152345000Y-121100000D03*
X150770000Y-121100000D03*
%TD*%
D12*
%TO.C,R19*%
X180200000Y-111760000D03*
X180200000Y-110740000D03*
%TD*%
D24*
%TO.C,R2*%
X162190000Y-116200000D03*
X163210000Y-116200000D03*
%TD*%
D10*
%TO.C,D9*%
X191767500Y-110000000D03*
X190192500Y-110000000D03*
%TD*%
M02*
