M48
; DRILL file {KiCad (6.0.0)} date Sat Mar 26 23:52:22 2022
; FORMAT={-:-/ absolute / inch / decimal}
; #@! TF.CreationDate,2022-03-26T23:52:22+13:00
; #@! TF.GenerationSoftware,Kicad,Pcbnew,(6.0.0)
; #@! TF.FileFunction,Plated,1,2,PTH
FMAT,2
INCH
; #@! TA.AperFunction,Plated,PTH,ViaDrill
T1C0.0079
; #@! TA.AperFunction,Plated,PTH,ViaDrill
T2C0.0157
; #@! TA.AperFunction,Plated,PTH,ComponentDrill
T3C0.0236
%
G90
G05
T1
X5.9252Y-4.9252
X5.9399Y-4.8282
X5.9606Y-4.124
X6.0079Y-4.815
X6.0276Y-4.248
X6.0433Y-4.2126
X6.0433Y-4.7795
X6.0443Y-4.9006
X6.063Y-4.8425
X6.0858Y-4.5291
X6.1024Y-3.9567
X6.1024Y-4.1535
X6.1024Y-4.2323
X6.1152Y-4.9006
X6.1378Y-4.9567
X6.1417Y-4.8425
X6.1417Y-4.8819
X6.1457Y-4.4803
X6.1644Y-4.5354
X6.1788Y-5.0314
X6.1811Y-4.0354
X6.1811Y-4.0748
X6.1811Y-5.0079
X6.1969Y-4.2402
X6.2047Y-4.8346
X6.2165Y-4.874
X6.218Y-4.7717
X6.2205Y-4.0354
X6.2205Y-4.0748
X6.2362Y-5.0512
X6.2363Y-5.0039
X6.2382Y-4.7147
X6.2386Y-5.0941
X6.2441Y-4.6102
X6.252Y-4.4764
X6.2588Y-4.5495
X6.2589Y-4.726
X6.2618Y-4.7634
X6.2638Y-4.2126
X6.2638Y-4.4449
X6.6437Y-4.7146
X6.6496Y-4.5967
X6.6597Y-4.7865
X6.6605Y-4.2323
X6.6605Y-4.4053
X6.6651Y-4.9969
X6.6661Y-4.5776
X6.6682Y-4.7176
X6.6683Y-4.4532
X6.6706Y-4.9682
X6.685Y-4.0393
X6.689Y-4.5433
X6.6917Y-5.0602
X6.7036Y-4.4352
X7.0876Y-4.9823
X7.1034Y-4.6288
X7.126Y-4.622
X7.133Y-4.8165
X7.1379Y-4.9149
X7.1457Y-4.7244
X7.1496Y-4.5276
X7.151Y-4.0762
X7.1565Y-4.0531
X7.1575Y-4.9336
X7.1654Y-4.1535
X7.1654Y-4.8947
X7.1821Y-4.0394
X7.185Y-5.0726
X7.2099Y-4.9595
X7.2107Y-5.0149
X7.2147Y-4.1357
X7.2205Y-4.0433
X7.2216Y-4.9309
X7.2228Y-4.7138
X7.2256Y-4.3461
X7.2291Y-4.7394
X7.2308Y-5.0694
X7.2362Y-4.4007
X7.2372Y-4.4764
X7.2438Y-4.9227
X7.2441Y-4.1339
X7.2441Y-4.685
X7.2713Y-4.9518
X7.273Y-4.5735
X7.2756Y-4.3465
X7.2791Y-4.6713
X7.2835Y-5.0472
X7.3031Y-4.626
X7.3122Y-4.3232
X7.3125Y-4.7544
X7.3386Y-4.2835
X7.3397Y-4.1394
X7.3425Y-4.6063
X7.3425Y-4.6654
X7.3425Y-4.7581
X7.3425Y-4.7913
X7.4027Y-4.3307
X7.4213Y-4.6654
X7.4535Y-4.7705
X7.4586Y-4.2764
X7.4717Y-4.2961
X7.5197Y-4.3593
X7.5312Y-4.6877
X7.5588Y-4.644
X7.5713Y-4.2886
X7.5791Y-4.7505
X7.5894Y-4.3933
X7.5896Y-4.1393
X7.5984Y-4.2913
X7.5984Y-4.5669
X7.6087Y-4.6811
X7.6535Y-4.3937
X7.6575Y-4.4291
X7.6575Y-4.626
X7.6876Y-4.9187
X7.6969Y-4.7892
X7.6994Y-4.626
X7.7283Y-4.5783
X7.7323Y-4.9374
X7.7362Y-4.3307
X7.7579Y-4.7083
X7.7634Y-4.7441
X7.7658Y-4.6339
X7.7659Y-4.4403
X7.7683Y-4.3892
X7.7714Y-5.0699
X7.806Y-4.9741
X7.8104Y-4.788
X7.8268Y-4.2667
X7.8366Y-5.0146
X7.8425Y-4.248
X7.8504Y-4.185
X7.8594Y-4.5623
X7.8626Y-4.6664
X7.874Y-4.9409
X7.8779Y-4.1339
X7.8819Y-4.8232
X7.9055Y-4.7835
X7.9055Y-5.0276
X7.9094Y-4.9528
X7.9134Y-4.063
X7.9141Y-4.3601
X7.9163Y-4.2087
X7.9194Y-4.482
X7.9259Y-4.8012
X7.9281Y-4.9026
X7.9336Y-4.7435
X7.9346Y-4.6736
X7.9409Y-4.4724
X7.9459Y-4.8136
X7.9528Y-4.9213
X7.9646Y-4.5906
X7.9646Y-4.9724
X7.9691Y-4.3451
X7.9783Y-4.425
X7.9791Y-4.0957
X7.9793Y-4.8922
X7.9892Y-5.0
X8.0079Y-4.9606
X8.0079Y-5.0669
X8.0394Y-4.9055
X8.063Y-4.8701
X8.0984Y-4.4685
X8.1076Y-4.4437
X8.1181Y-4.7244
X8.1487Y-4.7235
X8.1811Y-4.748
T2
X6.2008Y-4.4016
X6.2008Y-4.6535
X6.752Y-5.0197
X7.3819Y-4.5276
X7.4213Y-4.5276
X7.4606Y-4.4094
X7.4606Y-4.4488
X7.4606Y-4.4882
X7.4606Y-4.5276
X7.4606Y-4.5669
X7.4606Y-4.6063
X7.4606Y-4.6457
X7.5Y-4.5276
X7.5394Y-4.5276
X8.15Y-4.3799
T3
G00X6.0246Y-4.3575
M15
G01X6.001Y-4.3575
M16
G05
G00X6.0246Y-4.6976
M15
G01X6.001Y-4.6976
M16
G05
G00X6.199Y-4.3575
M15
G01X6.1557Y-4.3575
M16
G05
G00X6.199Y-4.6976
M15
G01X6.1557Y-4.6976
M16
G05
T0
M30
