<?xml version="1.0" encoding="UTF-8" standalone="no"?>
<!-- Created with Inkscape (http://www.inkscape.org/) -->

<svg
   width="210mm"
   height="297mm"
   viewBox="0 0 210 297"
   version="1.1"
   id="svg5"
   inkscape:version="1.1.1 (3bf5ae0d25, 2021-09-20)"
   sodipodi:docname="GND.svg"
   xmlns:inkscape="http://www.inkscape.org/namespaces/inkscape"
   xmlns:sodipodi="http://sodipodi.sourceforge.net/DTD/sodipodi-0.dtd"
   xmlns="http://www.w3.org/2000/svg"
   xmlns:svg="http://www.w3.org/2000/svg">
  <sodipodi:namedview
     id="namedview7"
     pagecolor="#505050"
     bordercolor="#ffffff"
     borderopacity="1"
     inkscape:pageshadow="0"
     inkscape:pageopacity="0"
     inkscape:pagecheckerboard="1"
     inkscape:document-units="mm"
     showgrid="false"
     inkscape:zoom="0.73406285"
     inkscape:cx="665.47435"
     inkscape:cy="561.25984"
     inkscape:window-width="1080"
     inkscape:window-height="1850"
     inkscape:window-x="1913"
     inkscape:window-y="-437"
     inkscape:window-maximized="1"
     inkscape:current-layer="layer1" />
  <defs
     id="defs2" />
  <g
     inkscape:label="Layer 1"
     inkscape:groupmode="layer"
     id="layer1">
    <path
       id="rect24190-8-3"
       style="fill:#ffffff;stroke-width:0.108712"
       d="m 138.7682,149.32775 c -0.7202,0 -1.30018,0.57946 -1.30018,1.29966 v 6.60012 1.62884 c 0,0.1939 0.15647,0.34985 0.35037,0.34985 h 1.89963 c 0.1939,0 0.35036,-0.15595 0.35036,-0.34985 v -6.90501 -1.32395 c 0,-0.7202 -0.57998,-1.29966 -1.30018,-1.29966 z m 0,0.29094 c 0.554,0 0.99994,0.44645 0.99994,1.00045 v 1.99988 c 0,0.554 -0.44594,0.99994 -0.99994,0.99994 -0.554,0 -0.99994,-0.44594 -0.99994,-0.99994 v -1.99988 c 0,-0.554 0.44594,-1.00045 0.99994,-1.00045 z m -0.001,4.51859 c 0.454,0 0.67593,0.21778 0.67593,0.60978 v 0.55604 h -0.23564 v -0.55604 c 0,-0.26 -0.13029,-0.37414 -0.44029,-0.37414 -0.308,0 -0.43821,0.11214 -0.43821,0.37414 v 0.22427 c 0,0.132 0.0802,0.18759 0.19017,0.18759 0.108,0 0.17208,-0.0559 0.17208,-0.16588 v -0.29973 h 0.20619 v 0.32402 c 0,0.24 -0.14841,0.3576 -0.38241,0.3576 -0.236,0 -0.42168,-0.11762 -0.42168,-0.41962 v -0.20825 c 0,-0.394 0.22186,-0.60978 0.67386,-0.60978 z m -0.67386,1.50585 h 1.08004 c 0.176,0 0.29404,0.10006 0.29404,0.31006 0,0.188 -0.0961,0.27214 -0.25012,0.32814 l -0.86196,0.39378 c -0.032,0.016 -0.0563,0.0423 -0.0563,0.0863 0,0.05 0.03,0.0796 0.076,0.0796 h 1.06815 v 0.23823 h -1.07797 c -0.178,0 -0.29611,-0.10206 -0.29611,-0.31006 1e-5,-0.188 0.0961,-0.27422 0.25012,-0.33022 l 0.86196,-0.39377 c 0.04,-0.018 0.0579,-0.0422 0.0579,-0.0842 0,-0.054 -0.03,-0.0816 -0.078,-0.0816 h -1.06764 z m 0.11007,1.7601 h 1.12965 c 0.074,0 0.11007,0.0361 0.11007,0.11213 v 0.47594 c 0,0.394 -0.21993,0.60772 -0.67593,0.60772 -0.454,0 -0.67386,-0.21172 -0.67386,-0.60772 v -0.47594 c 0,-0.076 0.0361,-0.11213 0.11007,-0.11213 z m 0.14986,0.23616 c -0.018,0 -0.0243,0.008 -0.0243,0.0258 v 0.32607 c 0,0.262 0.13029,0.37207 0.44029,0.37207 0.308,1e-5 0.43821,-0.11007 0.43821,-0.37207 v -0.32607 c 0,-0.018 -0.006,-0.0258 -0.0243,-0.0258 z" />
  </g>
</svg>
